<svg width="70" height="36" viewBox="0 0 70 36" fill="none" xmlns="http://www.w3.org/2000/svg">
<g clip-path="url(#clip0_0_36)">
<path d="M67.2442 17.0814L67.2071 17.1186C67.4673 16.4124 67.9876 16.1522 68.4336 16.1522C69.0655 16.1522 69.623 16.6354 69.623 17.3416C69.623 17.4903 69.623 17.6761 69.5487 17.8991C68.2478 21.2443 65.4973 22.954 62.8212 23.2142C61.5948 25.2956 59.5877 26.8195 56.7257 26.8195C52.6372 26.8195 50.816 23.5859 50.816 20.0549C50.816 15.7062 53.5665 10.8744 58.1753 10.8744C59.1788 10.8744 60.0337 11.0975 60.7399 11.3947C62.8212 12.1752 64.1593 14.8885 64.1593 17.7876C64.1593 18.7168 64.0849 19.646 63.8619 20.5381C65.2372 20.0549 66.538 18.9398 67.2442 17.0814ZM59.4762 13.9221V13.885C58.6585 13.885 58.1753 14.9628 58.1753 16.2637C58.1753 18.1593 59.216 19.9062 60.8514 20.5381C61.1115 19.7204 61.223 18.7912 61.223 17.7133C61.223 15.6319 60.5912 13.9221 59.4762 13.9221ZM56.7629 24.1062C57.8036 24.1062 58.8443 23.6602 59.662 22.731C57.2461 21.6531 55.7222 19.1257 55.7222 16.7097C55.7222 15.892 55.8709 15.0372 56.0939 14.2938C54.6072 15.5204 53.7523 17.9363 53.7523 20.0549C53.7523 22.8053 55.0532 24.1062 56.7629 24.1062Z" fill="black"/>
<path d="M51.3899 17.0815L51.3527 17.1187C51.6129 16.4125 52.0589 16.1152 52.5049 16.1152C53.1368 16.1152 53.7686 16.6727 53.7686 17.3789C53.7686 17.5647 53.7315 17.7134 53.6571 17.8992C52.2076 21.4302 50.0518 25.5559 46.5952 27.9718L46.5209 28.7152C46.112 33.1753 43.8448 36 40.9828 36C38.827 36 37.5633 34.5133 37.5633 32.7664C37.5633 29.6072 40.7969 28.455 43.8076 26.5223C43.8819 25.7417 43.9191 24.8497 43.9562 23.8461C42.4695 25.4815 40.8713 26.1506 39.4589 26.1506C36.6341 26.1506 34.3297 23.8461 34.3297 20.3152C34.3297 14.8886 37.8978 11.3205 41.8748 11.3205H41.912C44.6253 11.3205 47.5244 12.77 47.5244 15.3718C47.5244 16.2267 47.1527 20.8727 46.8554 24.478C48.8624 22.5824 50.535 19.4975 51.3899 17.0815ZM39.8677 23.4745C41.243 23.4745 43.1014 22.6196 44.2536 18.4196C44.4394 17.4904 44.5509 16.6727 44.5138 15.7063C44.2908 14.7028 43.4359 14.1081 42.2093 14.1081C39.6819 14.1081 37.266 16.524 37.266 20.2037C37.266 22.4338 38.3067 23.4745 39.8677 23.4745ZM41.2801 33.2868H41.3173C42.0978 33.2868 42.9527 32.7664 43.5102 29.4214C41.8748 30.3877 40.3509 31.3541 40.3509 32.5062C40.3509 32.9894 40.7226 33.2868 41.2801 33.2868Z" fill="black"/>
<path d="M34.9821 17.0814L34.945 17.1186C35.2051 16.4124 35.7255 16.1522 36.1715 16.1522C36.8034 16.1522 37.3609 16.6354 37.3609 17.3416C37.3609 17.4903 37.3609 17.6761 37.2866 17.8991C35.9857 21.2443 33.2352 22.954 30.5591 23.2142C29.3327 25.2956 27.3256 26.8195 24.4636 26.8195C20.3751 26.8195 18.5539 23.5859 18.5539 20.0549C18.5539 15.7062 21.3043 10.8744 25.9132 10.8744C26.9167 10.8744 27.7716 11.0975 28.4778 11.3947C30.5591 12.1752 31.8972 14.8885 31.8972 17.7876C31.8972 18.7168 31.8228 19.646 31.5998 20.5381C32.9751 20.0549 34.2759 18.9398 34.9821 17.0814ZM27.2141 13.9221V13.885C26.3964 13.885 25.9132 14.9628 25.9132 16.2637C25.9132 18.1593 26.9539 19.9062 28.5893 20.5381C28.8495 19.7204 28.961 18.7912 28.961 17.7133C28.961 15.6319 28.3291 13.9221 27.2141 13.9221ZM24.5008 24.1062C25.5415 24.1062 26.5822 23.6602 27.3999 22.731C24.984 21.6531 23.4601 19.1257 23.4601 16.7097C23.4601 15.892 23.6088 15.0372 23.8318 14.2938C22.3451 15.5204 21.4902 17.9363 21.4902 20.0549C21.4902 22.8053 22.7911 24.1062 24.5008 24.1062Z" fill="black"/>
<path d="M20.4428 15.9082C19.9224 15.9082 19.4764 16.1684 19.179 16.8746C18.2127 19.3277 16.2055 23.4906 14.1613 23.4906C12.8741 23.4906 11.878 23.1995 10.8714 22.9053C9.84345 22.6049 8.80464 22.3012 7.43375 22.3012C6.95056 22.3012 6.28152 22.3756 5.64965 22.4871C7.55322 19.8913 8.26436 16.7476 8.95344 10.8053C7.65598 10.7227 6.60058 10.483 5.8313 10.2409C5.00965 17.7774 4.0766 20.651 0.669035 23.4906C0.223009 23.8623 0 24.3827 0 24.9031C0 25.7208 0.70621 26.427 1.59826 26.427C1.89561 26.427 2.23012 26.3155 2.56464 26.1668C4.46025 25.3119 5.61248 25.0889 7.0249 25.0889C7.92306 25.0889 8.9978 25.3458 10.1485 25.6207C11.4739 25.9375 12.9 26.2783 14.2728 26.2783C17.2834 26.2783 19.2534 23.342 21.4463 17.6551C21.5579 17.4693 21.595 17.2463 21.595 17.0604C21.595 16.3542 21.0375 15.9082 20.4428 15.9082Z" fill="black"/>
<path fill-rule="evenodd" clip-rule="evenodd" d="M6.01989 8.70284C6.69298 8.93781 7.74379 9.21137 9.10622 9.2923L9.32923 9.29219C13.5293 9.29219 16.2798 6.69038 16.2798 3.5682C16.2798 1.56108 14.7187 0 12.5257 0C9.58941 0 7.54513 2.00711 6.50441 5.98417C5.2035 5.27796 4.31145 4.01423 3.86543 2.41597C3.64241 1.63542 3.15922 1.15223 2.49017 1.15223C1.67246 1.15223 1.1521 1.7841 1.1521 2.63898C1.1521 5.16646 3.12205 7.58242 6.02121 8.69749L6.01989 8.70284ZM9.55224 6.57887C10.1097 4.01423 11.0018 2.78766 12.1912 2.78766C12.8231 2.78766 13.2319 3.15935 13.2319 3.82839C13.2319 5.05495 11.931 6.50453 9.55224 6.57887Z" fill="black"/>
</g>
<defs>
<clipPath id="clip0_0_36">
<rect width="70" height="36" fill="white"/>
</clipPath>
</defs>
</svg>
