<?xml version="1.0" encoding="UTF-8"?>
<svg width="569" height="1271" viewBox="2200 0 569 1271" xmlns="http://www.w3.org/2000/svg">
  <defs>
    <clipPath id="o-clip">
      <rect x="2200" y="0" width="569" height="1271" />
    </clipPath>
  </defs>
  
  <!-- Letter O clipped from original path -->
  <g clip-path="url(#o-clip)">
    <!-- This path should be replaced with the actual O portion of your original RALLO path -->
    <path d="M1219.2,960.1l-64.6-22.5v-53.8l-12.9,12.7c-46.2,45.2-115.9,63.3-188.8,48.9-73.4-14.5-133.3-61.5-166.3-130.4-37.6-78.6-36.2-170.5,3.7-243.8,55.9-102.5,175.5-154.3,296.3-128.3,90.6,19.6,162.3,83.6,190,169.6,10.9,34,10.5,25.9,11.2,205.6.5,133.7.2,164.8-1.7,164.7-1.3,0-31.4-10.2-66.9-22.6ZM1063.9,811c80.1-27.9,108.8-125.4,57.1-194.3-37.1-49.4-111.3-62.2-163.5-28.3-35.3,22.9-56,61.7-56,104.8s35.5,105.8,91.2,120.7c20.2,5.4,50.6,4.2,71.2-3ZM1953.9,946.1c-40.4-7.2-78.1-23.4-110.6-47.4-16.9-12.5-42.3-38.4-54.8-55.9-20.4-28.5-36.2-65.5-43.4-101.3-4.8-23.8-4.3-75.3.9-99.3,11.2-51.4,33.5-92.3,70.7-129.5,30-30,63-50.1,103-62.8,37.1-11.8,30-11.4,214.7-12.1,160.9-.7,168-.6,167.9,2.5,0,1.8-9.2,29.2-20.2,60.9l-20.1,57.7-22.3.5-22.3.5,8.4,16.4c10.5,20.4,18.3,42.3,23.4,65.8,5.2,24,5.7,75.5.9,99.3-10.3,51.1-34,96-69.9,132-39.2,39.5-85.2,63.3-140.6,72.8-20,3.4-66.2,3.4-85.8-.2ZM2017.6,820.2c11.1-1.4,31.8-8.5,42.1-14.4,24-13.8,41.6-32.9,53.9-58.4,9.5-19.6,12.8-36.3,11.7-59.5-2.5-55.3-38.6-100.4-94-117.5-19-5.9-48.7-5.9-67.7,0-43.1,13.3-74.5,43.3-88.3,84.6-6.3,18.6-7.8,45.5-3.6,64.9,9.4,44.1,43.7,81.9,87.1,95.9,19.5,6.3,34.8,7.5,58.8,4.4ZM443.6,783.1c0-170.2-.1-168.3,11.7-203.6,24.8-74,85.4-126.2,161.8-139.5,12.4-2.2,30.6-2.8,85.1-2.8h69.3v131.2l-58.4.8c-36,.5-61.4,1.6-66.2,2.9-21.9,5.8-40.4,19.6-49.8,37.3-12.4,23.2-11.7,12-12.3,177.4l-.6,149.7h-140.7v-153.5ZM1341.7,582.1V227.7h140.8v708.9h-140.8v-354.5ZM1559.2,582.1V227.7h140.8v708.9h-140.8v-354.5Z" 
          fill="#fe6a3a" 
          transform="translate(-2200, 0)" />
  </g>
</svg>