<?xml version="1.0" encoding="UTF-8"?>
<svg id="Layer_1" xmlns="http://www.w3.org/2000/svg" version="1.1" viewBox="0 0 1271 1271">
  <!-- Generator: Adobe Illustrator 29.4.0, SVG Export Plug-In . SVG Version: 2.1.0 Build 152)  -->
  <defs>
    <style>
      .st0 {
        fill: #fe6a3a;
      }
    </style>
  </defs>
  <g id="_x32_73d6a77-76fd-49ad-a2e0-3dd761d8e629">
    <g id="_x32_73d6a77-76fd-49ad-a2e0-3dd761d8e629-child-0">
      <path class="st0" d="M540.8,987.6c-56.2-10.1-108.7-32.5-153.9-65.9-23.5-17.4-58.9-53.4-76.3-77.8-28.4-39.7-50.4-91.1-60.4-141-6.6-33.1-6-104.8,1.2-138.2,15.5-71.5,46.7-128.5,98.4-180.2,41.8-41.7,87.7-69.7,143.3-87.4,51.6-16.4,41.7-15.8,298.8-16.9,223.9-.9,233.7-.8,233.6,3.5,0,2.4-12.7,40.6-28.1,84.8l-28,80.4-31,.7-31,.7,11.8,22.8c14.6,28.4,25.4,58.8,32.6,91.6,7.2,33.4,7.9,105.1,1.2,138.2-14.3,71.1-47.3,133.5-97.2,183.7-54.6,54.9-118.6,88-195.6,101.3-27.8,4.8-92.1,4.7-119.3-.2ZM629.5,812.2c15.5-1.9,44.3-11.8,58.6-20.1,33.4-19.3,57.9-45.7,75-81.2,13.2-27.3,17.8-50.5,16.3-82.8-3.5-76.9-53.8-139.8-130.7-163.5-26.4-8.2-67.8-8.2-94.2,0-60,18.5-103.6,60.3-122.9,117.8-8.7,25.9-10.8,63.3-5.1,90.2,13.1,61.4,60.8,113.9,121.1,133.4,27.2,8.8,48.4,10.4,81.9,6.2Z"/>
    </g>
  </g>
</svg>