<svg xmlns="http://www.w3.org/2000/svg" xmlns:xlink="http://www.w3.org/1999/xlink" width="2841px" height="2841px" viewBox="0 0 2840.9957055637715 2840.9957055637724">
    <g id="a0eee866-9ce7-489d-a0ea-914711da53be">
<rect style="stroke: rgb(193,193,193); stroke-width: 0; stroke-dasharray: none; stroke-linecap: butt; stroke-dashoffset: 0; stroke-linejoin: miter; stroke-miterlimit: 4; fill: rgb(255,255,255); fill-rule: nonzero; opacity: 1;" x="-1420.4978527818857" y="-1420.4978527818862" rx="0" ry="0" width="2840.9957055637715" height="2840.9957055637724" transform="matrix(1 0 0 1 1420.497853 1420.497853)"/>
</g>
<g id="74460ab7-66d3-4453-9e23-b0274fb47af9">
<g style="">
		<g id="74460ab7-66d3-4453-9e23-b0274fb47af9-child-0">
<path style="stroke: rgb(193,193,193); stroke-width: 0; stroke-dasharray: none; stroke-linecap: butt; stroke-dashoffset: 0; stroke-linejoin: miter; stroke-miterlimit: 4; fill: rgb(254,106,58); fill-rule: nonzero; opacity: 1;" d="M323.16149,2599.45446c-45.0775,0 -81.61999,-36.54254 -81.61999,-81.61999v-2194.67298c0,-45.0775 36.54254,-81.61999 81.61999,-81.61999h2194.67298c45.0775,0 81.61999,36.54254 81.61999,81.61999v2194.67298c0,45.0775 -36.54254,81.61999 -81.61999,81.61999z" stroke-linecap="round"/>
</g>
</g>
</g>
<g id="89acf663-38ca-4ae7-b1b6-a6bf864085a1">
<g style="">
		<g id="89acf663-38ca-4ae7-b1b6-a6bf864085a1-child-0">
<path style="stroke: rgb(193,193,193); stroke-width: 0; stroke-dasharray: none; stroke-linecap: butt; stroke-dashoffset: 0; stroke-linejoin: miter; stroke-miterlimit: 4; fill: rgb(222,216,202); fill-rule: nonzero; opacity: 1;" transform="matrix(1.828474 0 0 1.822949 1420.497954 1420.497916) matrix(1 0 0 1 0 0)  translate(-521.475215, -212.470053)" d="M 435.25 412.22 L 399.00 399.57 L 399.00 384.42 L 399.00 369.28 L 391.75 376.40 C 365.85 401.85 326.71 412.02 285.81 403.91 C 244.63 395.74 211.04 369.31 192.52 330.50 C 171.42 286.27 172.20 234.56 194.59 193.31 C 225.93 135.60 293.07 106.44 360.84 121.12 C 411.67 132.14 451.93 168.18 467.44 216.56 C 473.57 235.68 473.33 231.16 473.72 332.25 C 474.01 407.49 473.83 424.99 472.79 424.94 C 472.08 424.90 455.19 419.18 435.25 412.22 Z M 348.12 328.34 C 393.09 312.62 409.18 257.74 380.17 219.00 C 359.35 191.20 317.72 183.97 288.42 203.06 C 268.60 215.96 257.00 237.76 257.00 262.07 C 257.00 295.14 276.92 321.59 308.18 330.03 C 319.52 333.09 336.59 332.37 348.12 328.34 Z M 847.50 404.38 C 824.82 400.31 803.67 391.22 785.44 377.72 C 775.95 370.69 761.70 356.11 754.67 346.24 C 743.23 330.18 734.35 309.38 730.30 289.20 C 727.62 275.80 727.88 246.81 730.80 233.31 C 737.07 204.39 749.62 181.34 770.47 160.44 C 787.31 143.56 805.82 132.24 828.26 125.11 C 849.08 118.48 845.07 118.71 948.75 118.28 C 1039.03 117.91 1043.00 117.97 1042.95 119.70 C 1042.92 120.69 1037.81 136.12 1031.61 154.00 L 1020.33 186.50 L 1007.83 186.78 L 995.33 187.06 L 1000.07 196.28 C 1005.96 207.75 1010.33 220.08 1013.20 233.31 C 1016.12 246.81 1016.38 275.80 1013.70 289.20 C 1007.93 317.97 994.62 343.21 974.50 363.50 C 952.48 385.71 926.69 399.10 895.62 404.47 C 884.40 406.40 858.50 406.36 847.50 404.38 Z M 883.26 333.47 C 889.51 332.69 901.12 328.70 906.89 325.36 C 920.36 317.57 930.22 306.86 937.15 292.50 C 942.48 281.45 944.31 272.09 943.72 259.00 C 942.31 227.89 922.04 202.47 891.00 192.87 C 880.35 189.57 863.65 189.57 853.00 192.87 C 828.82 200.35 811.22 217.26 803.44 240.50 C 799.93 250.97 799.08 266.12 801.40 277.00 C 806.68 301.83 825.91 323.07 850.25 330.97 C 861.20 334.53 869.77 335.18 883.26 333.47 Z M 0.00 312.63 C 0.00 216.85 -0.06 217.93 6.59 198.04 C 20.51 156.41 54.49 127.03 97.39 119.55 C 104.37 118.33 114.54 118.00 145.13 118.00 L 184.00 118.00 L 184.00 154.91 L 184.00 191.82 L 151.25 192.28 C 131.06 192.57 116.82 193.19 114.11 193.91 C 101.83 197.17 91.43 204.96 86.14 214.89 C 79.17 227.97 79.60 221.67 79.25 314.75 L 78.94 399.00 L 39.47 399.00 L 0.00 399.00 L 0.00 312.63 Z M 504.00 199.50 L 504.00 0.00 L 543.50 0.00 L 583.00 0.00 L 583.00 199.50 L 583.00 399.00 L 543.50 399.00 L 504.00 399.00 L 504.00 199.50 Z M 626.00 199.50 L 626.00 0.00 L 665.50 0.00 L 705.00 0.00 L 705.00 199.50 L 705.00 399.00 L 665.50 399.00 L 626.00 399.00 L 626.00 199.50 Z" stroke-linecap="round"/>
</g>
</g>
</g>

  </svg>