<?xml version="1.0" encoding="UTF-8"?>
<svg id="Layer_1" xmlns="http://www.w3.org/2000/svg" version="1.1" viewBox="0 0 851.7 941.3">
  <!-- Generator: Adobe Illustrator 29.4.0, SVG Export Plug-In . SVG Version: 2.1.0 Build 152)  -->
  <defs>
    <style>
      .st0 {
        fill: none;
      }
    </style>
  </defs>
  <path class="st0" d="M438.2,61.7c-123.2,69.9-259,148.8-364.1,209.5.3,60.4-.9,417.5,1.7,399.2.9.7,13.2,8,27.4,16.1,103.3,58.9,272.8,159.3,336.6,193.7,67.3-37.5,272.2-157.6,359.8-207.3l4.4-2.3c-.2-99.8-.5-300.6-.7-400.4-108-61-270-158.6-365.1-208.5ZM742.6,341.6c-.4,22.3-.7,40.2-.9,58.9-7.9-.2-23.8-.6-31.8-.8-.2-13.9-.5-71.4-1.8-75.2-56.9-33.3-212.8-122.9-269.1-155.4-68.5,41.1-231.8,133.2-270.5,156.1v133.3h32.3c29.6,0,32.4-.2,33-2.4.4-1.3,4.3-14.5,8.8-29.4,6.1-20.2,21.8-75.2,27.5-90.9,1-1.2,7.8-1.7,25.4-1.7s24.4.4,25.3,1.7c20.6,73.2,55.7,230,75.4,303.5.2-.2,12.4-60,27-132.9,37.9-189,46.5-230.7,48.2-232.7,2-2.5,46.2-2.5,48,0,4.9,7.5,70.3,296.4,72.8,295.6,2.5.9,7.3-21.1,16-47.2,22.2-71.8,22.1-71.4,25.5-71.9,6.9-.5,86.6.2,107.4.3.2,32.9,1.6,180.9,0,186.1-70.8,43-229.3,132-301.8,174.6-85.5-49.1-217-125.3-302.6-175-.2-23.4-.5-70.5-.7-93.9h32.5c.1,12.4-.7,75.3,1.7,74,79.3,47.2,186.8,107.9,269,155.8,73.1-42.3,195.6-112.9,269.9-155.7.4-29.5-1.1-120.3,1.7-133.5h-55.6c-11.6,36-25.5,80.1-37.4,118.3-9.6.1-47.9,1-50.8-.4.2,6.9-53.8-221-71.1-289-.3.3-10.5,50.3-22.7,111.2-31.5,157.5-50.1,248.5-51.2,250.3-1.4,2.3-48.6,2.1-50.5-.2-.7-.9-6.9-24.8-13.8-53-16.5-68-60.7-248-61.8-251.4-1.1-3.4.3-7.6-20.8,63.4-9.5,31.9-18,58.5-19,59.1-6.5,1.5-97.6,1.1-120.1,1.2-.1-33.8.2-177.7-.2-186.2-.1-.6,12.5-8.4,28-17.3,175.1-101.1,274-157.8,275.5-157.8,1.3,0,19.8,10.6,134.6,76.8,18.2,10.5,57.7,33.3,87.9,50.6,105.5,63.7,76,31.2,80.6,83.2Z"/>
  <path d="M836.9,253.7c-.7-3.5-2.9-5.3-17.2-13.4-95.2-54.2-335.4-193.7-380.2-218.4C400,43.8,127,200.8,42.3,250.1c-.2,109.7-.5,330.5-.6,440.2,116.8,66.8,283,164.6,398,229.1,28.2-15,203.1-117.3,300-172.7,33.9-19.8,72.7-41.1,95.5-55.4,4.2,27.3,2.1-426.4,1.6-437.5ZM799.6,672.9c-87.5,49.6-292.5,169.8-359.8,207.3-63.8-34.4-233.3-134.7-336.6-193.7-14.1-8.1-26.4-15.4-27.4-16.1-2.6,18.3-1.4-338.8-1.7-399.2,105.1-60.7,241-139.6,364.1-209.5,95.1,49.9,257.1,147.6,365.1,208.5.2,99.8.5,300.6.7,400.4l-4.4,2.3Z"/>
  <path d="M662,258.4c-30.1-17.3-69.6-40.1-87.9-50.6-114.8-66.2-133.3-76.8-134.6-76.8-1.5,0-100.4,56.6-275.5,157.8-15.6,9-28.2,16.8-28,17.3.5,8.5.1,152.4.2,186.2,22.5,0,113.6.3,120.1-1.2,1-.6,9.6-27.2,19-59.1,21.1-71,19.7-66.8,20.8-63.4,1.1,3.4,45.3,183.4,61.8,251.4,6.9,28.2,13.1,52.1,13.8,53,1.8,2.3,49,2.4,50.5.2,1.1-1.8,19.7-92.8,51.2-250.3,12.2-60.8,22.4-110.9,22.7-111.2,17.3,68,71.2,295.8,71.1,289,2.9,1.4,41.2.5,50.8.4,11.9-38.2,25.8-82.3,37.4-118.3h55.6c-2.8,13.2-1.3,104-1.7,133.5-74.3,42.9-196.8,113.5-269.9,155.7-82.3-47.9-189.7-108.6-269-155.8-2.4,1.3-1.6-61.7-1.7-74h-32.5c.2,23.4.5,70.5.7,93.9,85.6,49.7,217.1,125.9,302.6,175,72.6-42.6,231-131.6,301.8-174.6,1.7-5.1.2-153.2,0-186.1-20.8-.1-100.5-.9-107.4-.3-3.4.5-3.3,0-25.5,71.9-8.8,26.1-13.5,48.1-16,47.2-2.6.8-67.9-288.1-72.8-295.6-1.9-2.5-46-2.4-48,0-1.6,2-10.3,43.7-48.2,232.7-14.6,72.8-26.8,132.6-27,132.9-19.7-73.5-54.8-230.3-75.4-303.5-1-1.2-7.7-1.7-25.3-1.7s-24.4.5-25.4,1.7c-5.7,15.7-21.4,70.7-27.5,90.9-4.4,14.9-8.4,28.1-8.8,29.4-.6,2.2-3.4,2.4-33,2.4h-32.3v-133.3c38.7-22.9,201.9-115,270.5-156.1,56.2,32.5,212.1,122.1,269.1,155.4,1.2,3.8,1.6,61.3,1.8,75.2,7.9.2,23.8.6,31.8.8.2-18.7.4-36.5.9-58.9-4.6-51.9,24.9-19.5-80.6-83.2Z"/>
</svg>