<?xml version="1.0" encoding="UTF-8"?>
<svg id="Layer_1" xmlns="http://www.w3.org/2000/svg" version="1.1" viewBox="0 0 191 168">
  <!-- Generator: Adobe Illustrator 29.4.0, SVG Export Plug-In . SVG Version: 2.1.0 Build 152)  -->
  <path d="M153.8,1h-14.8c-10.3,0-24.5,0-43.1.1h-.4c-18.6,0-33.1-.1-43.1-.1h-14.8C35.9,2.5,2.4,51.2,2.4,52c0,1.2.4,2.1,5.2,7.9,7.3,8.8,45.5,55.5,53.5,65.2,8,9.7,31.3,40.3,32.7,40.3h3.4c1.4,0,24.7-30.6,32.7-40.3s16.3-19.7,27.6-33.7l6.6-8.1c7.4-9.1,11.9-14.6,19.3-23.4,4.8-5.8,5.2-6.7,5.2-7.9S155.5,2.5,153.8,1ZM155.3,12.9l24.2,34.9h-42.4s18.2-34.9,18.2-34.9ZM151,7.3l-.8,1.6-21,38.9L96,7.2h55.1-.1ZM95.8,22.2h0l21.2,25.8h-42.4l21.2-25.8ZM95.6,7.2l-33.3,40.6L41.3,8.9l-.8-1.6h55.1ZM36.2,12.9l18.2,35H12.1L36.2,12.9ZM11.2,54.3l45.5.3,28.4,88.9L11.2,54.3ZM95.8,152.8l-30.2-94.2h60.4l-30.2,94.1h0ZM106.5,143.5l28.4-88.9,45.5-.3-73.8,89.2h0Z"/>
  <polygon points="95.8 64.6 95.8 64.6 74.5 64.6 95.8 93 95.8 93 95.8 93 95.8 93 95.8 93 117.1 64.6 95.8 64.6"/>
</svg>