<?xml version="1.0" encoding="UTF-8"?>
<svg id="Layer_1" xmlns="http://www.w3.org/2000/svg" version="1.1" viewBox="0 0 191 168">
  <!-- Generator: Adobe Illustrator 29.4.0, SVG Export Plug-In . SVG Version: 2.1.0 Build 152)  -->
  <defs>
    <style>
      .st0 {
        fill: none;
      }
    </style>
  </defs>
  <g>
    <path class="st0" d="M68.2,47.4l-.5.7,55.3.4s-27.2-35.3-27.4-35.3c-.1,0-1.9,2.2-4,4.8-2.1,2.6-6.1,7.7-8.9,11.2-4.9,6.1-13.4,16.7-14.5,18.2Z"/>
    <path class="st0" d="M60.4,43c0,0,6.1-7.5,13.3-16.6,7.3-9.1,13.3-16.8,13.4-17,.1-.4-2.8-.4-21.9-.4s-22.1,0-22.1.2,15.3,30.3,16.9,33.3c.2.3.3.5.4.5Z"/>
    <path class="st0" d="M130.7,43c0,0,4-7.5,8.7-16.7,4.7-9.2,8.5-16.8,8.5-17s-7.6-.3-22-.3-22,0-22,.1c0,.1,8.7,11.2,20.9,26.6,3.2,4,5.9,7.3,6,7.3Z"/>
    <path class="st0" d="M52.9,47.9c0,0-2-4-4.4-8.7-2.4-4.7-6.2-12.1-8.5-16.6-2.3-4.4-4.2-8-4.3-8-.1,0-1.4,1.7-2.8,3.8-15.5,22.2-20,28.8-20.2,29.2-.1.3,4,.4,20,.4s20.1,0,20.1-.1Z"/>
    <path class="st0" d="M134.6,56.9s-24.3,74.3-26.6,81c-1.5,4.3-1.8,5.6-1.4,5.2.2-.2,1.4-1.6,2.7-3.2,1.3-1.6,9-10.9,17-20.7,8-9.8,17.9-21.9,22-26.9,16.4-20,29.2-35.9,29.2-36s-42.9.5-42.9.5Z"/>
    <path class="st0" d="M164.5,27.5c-9-13.3-8.7-12.8-9-12.9-.1,0-1.9,3.2-3.9,7.2-7.7,15-13.2,25.7-13.2,26s8.9.3,20,.3,20-.1,20-.3-.3-.6-.6-1c-.8-1-3.8-5.3-13.3-19.3Z"/>
    <path class="st0" d="M78.5,124.5c-5.6-17.1-10.4-31.8-18.2-55.7l-3.9-11.9H13.6l4.4,5.2c4,4.9,32.3,39.3,51.2,62.5,13.6,16.7,15.2,18.6,15.4,18.6s0-.3,0-.7c-.1-.4-2.8-8.5-5.9-18.1Z"/>
    <path class="st0" d="M95.7,56.9c-16.4,0-29.8,0-29.8.2s4.5,14,10,30.8c11.4,34.9,17.3,53.1,18.5,57,.4,1.5.9,2.6,1,2.5.1-.1,3.4-10.1,7.4-22.1,7.1-21.7,22.1-67.3,22.4-68.1.1-.3-4.4-.4-29.6-.4Z"/>
    <path d="M184.9,41.7c-2.6-3.7-7.8-11.2-11.5-16.7C156-.6,157.2,1,154.7.5c-1.9-.4-115.9-.4-118,0-2.4.5-2.6.7-10.2,11.7-2.8,4.1-9.9,14.3-15.7,22.8C.8,49.4.1,50.4,0,51.8c0,.9,0,1.9.3,2.5.2.6,5.4,7,11.5,14.3,6.1,7.3,14.2,17.2,18,21.9,14.9,18.3,31.2,38.1,35.8,43.8,2.7,3.3,8.1,9.8,12,14.6,12.1,14.9,14.4,17.6,15.6,18.4,1.4.8,3.3.7,4.8-.3.7-.5,3.9-4.1,8.1-9.2,3.8-4.6,10.7-13.2,15.5-18.9,4.7-5.8,10-12.3,11.9-14.5,6-7.2,13.8-16.8,25.9-31.6,6.6-8,14-17.2,16.6-20.3,2.6-3.1,6.7-8.1,9.3-11.2,4.9-5.9,5.7-7.2,5.7-9.2,0-1.5-.4-2.2-6.1-10.4ZM125.8,9c14.4,0,22,.1,22,.3s-3.8,7.8-8.5,17c-4.7,9.2-8.6,16.7-8.7,16.7s-2.8-3.3-6-7.3c-12.2-15.4-20.9-26.5-20.9-26.6s9.9-.1,22-.1ZM91.6,18c2.1-2.6,3.9-4.8,4-4.8.2,0,27.4,35.3,27.4,35.3l-55.3-.4.5-.7c1.1-1.5,9.6-12.1,14.5-18.2,2.8-3.5,6.8-8.5,8.9-11.2ZM65.2,9c19.1,0,22,0,21.9.4,0,.2-6.1,7.9-13.4,17-7.3,9.1-13.2,16.6-13.3,16.6s-.2-.2-.4-.5c-1.6-3-16.9-33.2-16.9-33.3s9.9-.2,22.1-.2ZM12.8,47.7c.2-.4,4.7-7,20.2-29.2,1.4-2,2.7-3.7,2.8-3.8.1,0,2.1,3.6,4.3,8,2.3,4.4,6.1,11.9,8.5,16.6,2.4,4.7,4.4,8.6,4.4,8.7s-9.1.1-20.1.1c-16,0-20.1,0-20-.4ZM84.5,143.3c-.1,0-1.7-2-15.4-18.6-18.9-23.2-47.2-57.6-51.2-62.5l-4.4-5.2h42.9l3.9,11.9c7.8,23.9,12.6,38.6,18.2,55.7,3.1,9.6,5.8,17.7,5.9,18.1.1.4.1.7,0,.7ZM102.9,125.4c-3.9,12-7.3,22-7.4,22.1-.1.1-.6-1-1-2.5-1.2-4-7.1-22.2-18.5-57-5.5-16.8-10-30.7-10-30.8s13.4-.2,29.8-.2c25.2,0,29.7,0,29.6.4-.3.8-15.3,46.3-22.4,68.1ZM148.3,92.4c-4.1,5-14,17-22,26.9-8,9.8-15.7,19.1-17,20.7-1.3,1.6-2.5,3-2.7,3.2-.4.4,0-.9,1.4-5.2,2.3-6.7,26.6-81,26.6-81,0,0,42.9-.6,42.9-.5,0,.1-12.9,16.1-29.2,36ZM158.3,48.1c-11.1,0-20-.1-20-.3,0-.2,5.5-11,13.2-26,2-3.9,3.8-7.2,3.9-7.2.2,0,0-.4,9,12.9,9.5,14,12.5,18.3,13.3,19.3.3.4.6.9.6,1s-8.9.3-20,.3Z"/>
  </g>
  <polygon points="95.4 19.3 75.6 45 115.2 45 95.4 19.3"/>
  <polygon points="95.4 86 115.2 60.3 75.6 60.3 95.4 86"/>
</svg>