<?xml version="1.0" encoding="UTF-8"?>
<svg id="Layer_1" xmlns="http://www.w3.org/2000/svg" version="1.1" viewBox="0 0 914.1 959.6">
  <!-- Generator: Adobe Illustrator 29.4.0, SVG Export Plug-In . SVG Version: 2.1.0 Build 152)  -->
  <defs>
    <style>
      .st0 {
        fill: none;
      }
    </style>
  </defs>
  <path class="st0" d="M356.9,762.1c-11.3,1.7-25-5.4-29.8-15.3-2.6-5.4-2.8-8.5-2.8-43.1v-148.1l-225.2,110.9,10.6,6.9c5.8,3.8,22.8,14.3,37.7,23.5,58,35.6,177.4,109.5,251.2,155.4l35.2,21.9.7-154.7s-17.1,9.4-36.4,20.9c-24.7,14.6-37,21.1-41.1,21.8Z"/>
  <path class="st0" d="M682.4,535.8c1.3-.8-8-6.9-28.6-19.1-140.8-83.3-297.2-175.1-298.4-175.1s-.5,87.3-.5,194c0,168.8.3,193.9,2,193.2,1.1-.4,8.5-4.7,16.4-9.5,7.9-4.8,33.2-19.8,56.2-33.3,40.6-23.9,115-68.1,206.4-122.5,24.5-14.6,45.5-27.1,46.5-27.7Z"/>
  <path class="st0" d="M324.2,482.4l.7-152.7,3.4-5.9c5.1-8.8,12.5-13.4,23-14.1,10.3-.7,8.2-1.6,50.8,23.3,17.2,10.1,31.4,18.1,31.6,17.9s.8-55.8,1.3-123.6c.6-81.2,1-125.2,0-124.7l-125.6,186.9c-155.4,232.7-229,344-228.4,345.1.3.6,242.9-111.3,242.9-111.3l.2-41Z"/>
  <path class="st0" d="M466.5,102.6l.3,134.3.4,134.3,18.1,10.5c61,35.4,219.6,129.7,222.9,132.7,3.7,3.2,7.6,11.5,8.7,18.2,1.2,7.5-2.3,16.8-8.3,22-2.2,1.9-26.5,17-56.1,34.8,14.1,3.9,167,46.2,169.5,45.6,0,0,0,0,0,0,0-1.5-334-501.9-350.3-524.8l-5.4-7.6Z"/>
  <path class="st0" d="M608.7,615.9l-142.2,84.2v87.9c0,30.6,0,86.1,0,87.9h0s4.5-2.7,4.5-2.7c2.5-1.5,28.1-17.3,56.8-35.2,28.8-17.9,67.7-42,86.5-53.6,38.5-23.8,189-117.1,189-117.1l-194.3-51.5-.3.2Z"/>
  <path d="M866.5,651.2c-.4-7.6-1.2-8.9-192.4-294.9C568.6,198.2,478.2,63.1,473.4,56c-4.8-7.1-10.5-13.9-12.7-15-5.5-2.8-15-2.5-20.2.7-3.2,1.9-60.8,82.1-205,298.2C126.6,503.3,38.9,640.4,37.7,642.7c-3.2,6.1-2.7,15.5,1,21,1.7,2.5,8.2,7.7,14.3,11.5,6.1,3.8,31.2,19.3,55.8,34.4,177.6,109.4,231.6,142.8,269.1,166.2,71.2,44.5,66.1,41.6,73.8,41.6s9.2-1.4,69.2-38.7c34.2-21.3,73.4-45.7,87.2-54.2,36.3-22.5,174.3-107.7,212.6-131.3,40.1-24.7,39-23.9,43-29.8,2.6-3.8,3.2-6.2,2.8-12.4ZM309.5,289.7l125.6-186.9c.9-.6.6,43.4,0,124.7-.5,67.8-1.1,123.4-1.3,123.6s-14.4-7.9-31.6-17.9c-42.6-24.9-40.5-24-50.8-23.3-10.5.7-18,5.2-23,14.1l-3.4,5.9-.7,152.7-.2,41s-242.5,111.9-242.9,111.3c-.6-1.1,73-112.3,228.4-345.1ZM433.7,874.2l-35.2-21.9c-73.8-45.9-193.3-119.8-251.2-155.4-14.9-9.1-31.8-19.7-37.7-23.5l-10.6-6.9,225.2-110.9v148.1c0,34.6.2,37.6,2.8,43.1,4.8,10,18.5,17,29.8,15.3,4.2-.6,16.5-7.1,41.1-21.8,19.4-11.5,36.4-20.9,36.4-20.9l-.7,154.7ZM429.5,686c-23,13.5-48.3,28.5-56.2,33.3-7.9,4.8-15.3,9-16.4,9.5-1.8.7-2-24.4-2-193.2s.2-194,.5-194c1.2,0,157.6,91.8,298.4,175.1,20.6,12.2,29.9,18.4,28.6,19.1-1,.6-22,13.1-46.5,27.7-91.4,54.5-165.8,98.6-206.4,122.5ZM614.3,784.3c-18.8,11.6-57.7,35.8-86.5,53.6-28.8,17.9-54.3,33.7-56.8,35.2l-4.5,2.7h0c0-1.8,0-57.3,0-87.9v-87.9l142.2-84.2.3-.2,194.3,51.5s-150.5,93.3-189,117.1ZM822.1,635c-2.5.5-155.4-41.7-169.5-45.6,29.6-17.9,53.9-32.9,56.1-34.8,6-5.2,9.5-14.5,8.3-22-1.1-6.7-5-15-8.7-18.2-3.4-2.9-161.9-97.3-222.9-132.7l-18.1-10.5-.4-134.3-.3-134.3s355.6,530.9,355.6,532.3,0,0,0,0Z"/>
</svg>