<?xml version="1.0" encoding="UTF-8"?>
<svg id="Layer_1" xmlns="http://www.w3.org/2000/svg" version="1.1" viewBox="0 0 1601 1812">
  <!-- Generator: Adobe Illustrator 29.4.0, SVG Export Plug-In . SVG Version: 2.1.0 Build 152)  -->
  <defs>
    <style>
      .st0 {
        fill: none;
      }
    </style>
  </defs>
  <path class="st0" d="M439.9,1090.3l.2-.2c1.3-1.3,2.1-3.2,2.1-5.1,0-2.4,0-4.5-35.6-77.5-20.3-41.7-47.8-97.4-77.4-156.6-29.6-59.4-57.7-115-78.9-156.6-37.1-72.6-39.2-74.7-40.7-76.1-5.3-5.2-84.5-50.6-104.8-60.9l-23.5-12v737.9l5.9,5.9,41.3-23.2c16.4-9.2,72.6-40.7,172-96.3,5.5-3.1,135.8-75.9,139.5-79.4ZM125,1259.9l-36.7,20.6h0v-.2l36.7-20.6c20.2-11.3,97.6-54.7,172-96.3,74.4-41.6,136.6-76.8,138.1-78.4h0c0,0,0,0,0,0,0,0,0,.2,0,.2-1.6,1.5-63.7,36.8-138.1,78.4-74.4,41.6-151.8,84.9-172,96.3Z"/>
  <path class="st0" d="M157.5,449.5c20.1-11.4,52.8-29.7,72.5-40.9,19.7-11.1,92.3-51.5,161.4-89.6,69.1-38.1,163-90.2,208.7-115.7,206.7-115.2,198.1-110.9,209.7-105.3,5.7,2.7,58.8,32,118,65.1s177.3,98.7,262.5,145.9c218.3,120.9,289.5,160.9,290.1,163.3,0,0,0,0,0,0,0-2-70.9-41.9-290.1-163.3-85.2-47.1-203.3-112.8-262.5-145.9-59.2-33.1-112.3-62.4-118-65.1-11.6-5.6-3-9.9-209.7,105.3-45.7,25.5-139.7,77.6-208.7,115.7-69,38.1-141.7,78.5-161.4,89.6-19.7,11.2-52.3,29.6-72.5,40.9v-.2c-20.1,11.3-36.6,21.6-36.6,22.9s0,0,0,0c1.5-2,17.3-11.9,36.6-22.6Z"/>
  <path class="st0" d="M273.3,559.2c83.8,46.6,208.2,116,276.3,154.1,179.3,100.5,250.9,140.2,252.3,140.2s24.2-13.1,52.2-29c51-29,265.5-149,455.2-254.6,141.9-79,170.5-95.4,171.1-97.6-.6-2.4-71.8-42.4-290.1-163.3-85.2-47.2-203.3-112.8-262.5-145.9s-112.3-62.4-118-65.1c-11.6-5.6-3-9.9-209.7,105.3-45.7,25.5-139.6,77.6-208.7,115.7-69.1,38.1-141.7,78.5-161.4,89.6-19.7,11.2-52.4,29.5-72.5,40.9-19.2,10.8-35.1,20.6-36.6,22.6,1.1,1.9,69.2,40.8,152.4,87.1ZM869.5,703.3c-6.3,6.1-13.3,9-21.2,9s-14.3-2.1-22.5-6.3c-10.6-5.4-17.7-8.7-25.1-8.7s-14.1,3.1-24.3,8.3c-9.5,4.8-16.4,7-22.4,7s-10.4-1.8-16.4-5.8c-12.6-8.5-16.6-16.6-15.2-30.9,1.8-18,14.7-29.4,25.2-35.9,14.5-8.9,34.2-14,53.9-14s45.2,6.9,60.9,19.6h0s2.4,2.1,2.4,2.1c9,7.9,14.4,19,14.7,30.5.2,9.8-3.3,18.7-9.9,25.1ZM1036.1,582.9c-3.5,9.9-10.6,16.9-19.4,19.4-4.2,1.2-7.6,1.7-10.7,1.7h0c-8.8,0-17.1-4.4-31.8-17-42.3-36.2-98.5-56-166.7-58.9-11.6-.5-19.3-.7-25.9-.7-18.8,0-29.7,1.9-45.4,5.9-37.7,9.6-78.4,29.4-103.7,50.4-19.1,15.9-28.4,21.2-36.9,21.2s-8.5-1.2-14.5-3.8c-12.5-5.4-19.9-18.8-18.4-33.3,1.5-15.1,6.1-22.7,33.9-43.7,29.2-22.3,62.8-39.5,105.8-54.3l34.3-11.9h57.5c68.8,0,102.2,5.9,151.7,28.2h0s9,4.3,9,4.3c25.5,12,65.7,42.4,76.8,58,6.9,9.6,8.6,22.8,4.5,34.3ZM437,420.4c21-23.5,47.3-46.3,72.2-62.7,81.1-53.2,184.4-82.5,290.8-82.5s212,29.9,294,84.1c18.1,12,41.6,31.7,62.8,52.6,24.5,24.2,35.1,39.2,36.7,44.7,3.8,12.9,2.1,25.7-4.8,34.9-6.1,8.1-15.5,12.6-26.5,12.6s-12,0-43.5-31.7c-50.1-50.3-97.9-80.1-164.9-102.6-48-16.1-99.4-24.3-152.8-24.3-94.8,0-185.4,25.9-255.2,72.8-11.2,7.6-36.9,29.9-58.5,50.9-35.8,34.8-36.2,34.8-47.3,34.8s-15.7-2.3-19.3-4.4h0c-.9-.6-1.8-1.1-2.7-1.6-8-4.7-12.8-7.6-12.8-26.1s8.4-25.2,31.8-51.5Z"/>
  <path d="M129.4,485.7c7.7,4.6,18.8,11,32.8,19,28.9,16.5,67.1,38,107.7,60.6,87.7,48.8,211.7,118,276.3,154.1,88.2,49.5,151.3,84.7,192.9,107.8,59.9,33.3,60.3,33.3,62.8,33.3s3,0,55.7-29.9c52.7-30,269.6-151.3,455.1-254.6,75.6-42.1,116-64.7,139.4-78.1,35.3-20.2,35.3-20.7,35.3-25.8v-.4c-.2-4.5-2.3-5.7-18-15-10.2-6-26.1-15.1-48.5-27.7-44.2-24.9-114.2-63.9-227.3-126.4-85.1-47.1-202.5-112.4-262.5-145.9-53.1-29.7-111.9-62.2-118.4-65.3-.3-.2-.7-.4-1-.5-2.1-1.1-4.7-2.4-8.6-2.4-11.9,0-31.3,10.9-183,95.4l-23.4,13.1c-43.7,24.4-137.3,76.3-208.7,115.7-68.1,37.6-141.4,78.3-161.5,89.6-14.6,8.3-35,19.9-52.6,29.7h0c0-.1-19.9,11-19.9,11-40.3,22.5-40.3,24.8-40.3,29s1.8,5.5,15.5,13.6ZM120.9,472.1c0-1.3,16.5-11.6,36.7-22.9v.2c20.1-11.3,52.7-29.7,72.4-40.9,19.7-11.1,92.4-51.5,161.4-89.6,69-38.1,163-90.2,208.7-115.7,206.7-115.2,198.1-110.9,209.7-105.3,5.7,2.7,58.8,32,118,65.1,59.2,33.1,177.3,98.8,262.5,145.9,219.2,121.4,290,161.3,290.1,163.3,0,0,0,0,0,0,0,0,0,0,0,0,0,2-27.7,17.9-171.1,97.7-189.7,105.6-404.2,225.6-455.2,254.6-28,16-51.5,29-52.2,29-1.4-.1-72.9-39.8-252.3-140.2-68.1-38.2-192.5-107.5-276.3-154.1v.2c-83.9-46.6-152.5-85.8-152.5-87.1s0-.2.1-.3c0,0,0,0,0,0Z"/>
  <path d="M273.2,559.5v-.2c83.9,46.6,208.3,115.9,276.4,154.1,179.4,100.4,250.9,140.1,252.3,140.2.7,0,24.2-13,52.2-29,51-29,265.5-149,455.2-254.6,143.4-79.8,171.2-95.7,171.1-97.7,0,0,0,0,0,0-.6,2.3-29.1,18.6-171.1,97.6-189.7,105.6-404.2,225.6-455.2,254.6-28,15.9-51.5,29-52.2,29-1.4,0-73-39.7-252.3-140.2-68.1-38.1-192.5-107.5-276.3-154.1-83.1-46.2-151.3-85.2-152.4-87.1,0,.1-.1.2-.1.3,0,1.3,68.6,40.5,152.4,87.1Z"/>
  <path class="st0" d="M435.1,1085s0,0,0,0h0c-1.5,1.5-63.7,36.7-138.1,78.3-74.4,41.6-151.8,85-172,96.3l-36.7,20.6h0c0,.1,0,.2,0,.2l36.7-20.6c20.2-11.4,97.6-54.7,172-96.3,74.4-41.6,136.5-76.9,138.1-78.4,0,0,0,0,0-.2Z"/>
  <path class="st0" d="M728.8,1661c-6-13.1-24.1-49.4-40-80.7-16-31.2-69.8-137.5-119.6-236.1s-91-179.8-91.6-180.5c-1.6-1.8-32.9,15.3-258.9,142.3-36.7,20.7-69.3,39.3-72.4,41.4-.8.6-1.3,1.2-1.3,2,0-.7.5-1.3,1.3-1.9,3-2.1,35.7-20.8,72.4-41.4,226-127,257.2-144.2,258.9-142.3.6.6,41.8,81.9,91.6,180.5s103.6,204.9,119.6,236.1h0c15.9,31.4,33.9,67.7,40,80.8,5.7,12.3,10.1,22.6,10.4,23.8h0c.4,0-4.3-10.9-10.4-24Z"/>
  <path class="st0" d="M1474,1258.7l37.5,21.1.8-360.3-.2-.2c.5-192.8.2-352.1-.4-361.3-3.2.8-28,14-57.4,30.8l-.2-.2.2.2c29.3-16.7,54.2-30,57.4-30.8,0-.3,0-.4,0-.4-.7-.8-26.7,13.1-57.7,30.8l-56.3,32.2-22.3,42.3c-12.3,23.2-65.5,127.6-118.3,231.9l-95.9,189.7h.2c0,.1,95.9-189.5,95.9-189.5,52.8-104.3,106-208.7,118.3-231.9l22.3-42.3-22.3,42.3c-12.3,23.2-65.5,127.6-118.3,231.9l-95.9,189.6,137.5,76.5c75.8,42.1,154.6,86,175.2,97.6Z"/>
  <path d="M1519.3,664.4c0-32.6-.1-59.5-.3-77.9,0-9.3-.1-16.5-.2-21.4-.1-9.3-.2-10.3-2.3-12.5h0c-1.3-1.3-3.2-2.1-5.1-2.1s-5.4,0-61.1,31.8l-58.1,33.2-23.2,44.1c-13.2,24.8-69.5,135.5-118.4,232l-98.9,195.7,143.6,79.9c75.8,42.1,154.4,85.9,175.2,97.6l47.9,27,.8-375.1-.2-.2c.2-92.8.3-182.2.2-252ZM1512.5,919.7l-.8,360.3-37.5-21.1c-20.7-11.6-99.5-55.5-175.2-97.6l-137.7-76.6h0c0,0-.2-.2-.2-.2l95.9-189.7c52.8-104.3,106-208.7,118.3-231.9l22.3-42.3,56.3-32.2c31-17.7,57-31.6,57.7-30.8,0,0,0,.2,0,.4.2,0,.3,0,.3,0,.7.7,1,163.5.5,361.7Z"/>
  <path d="M1511.7,558c.7,9.1.9,168.5.4,361.3l.2.2-.8,360.3-37.5-21.1c-20.6-11.6-99.4-55.5-175.2-97.6l-137.5-76.5h0c0,0,137.7,76.7,137.7,76.7,75.7,42.1,154.5,86,175.2,97.6l37.5,21.1.8-360.3c.5-198.2.2-361-.5-361.7,0,0-.2,0-.3,0Z"/>
  <path class="st0" d="M1086,1232.9c18.8-38,35.3-69.2,36.7-69.3s54.2,28.6,117.4,63.8,137.9,76.7,166.1,92.1h.1c26.3,14.4,47.7,27.6,50.1,30.6-1.8-2.9-23.6-16.1-50.2-30.7-28.2-15.4-102.9-56.9-166.1-92.1-63.2-35.2-116-63.8-117.4-63.8-1.3.1-17.9,31.3-36.7,69.3-18.8,38-77.1,154.5-129.6,258.8s-95.4,188.7-95.4,191.5,0,0,0,0c.3-1.7,43.1-87.6,95.4-191.5,52.5-104.4,110.8-220.8,129.6-258.8Z"/>
  <path class="st0" d="M1204.2,805.3c28.6-56.2,51.5-102.8,50.7-103.5,0,0,0,0-.1,0,0,0,0,0,0,0,.8.8-22,47.4-50.7,103.5h0c-28.6,56.1-130.3,257.6-225.8,447.7s-174.8,346.9-176.2,348.4c-.2.3-.5.4-.9.4.4,0,.7-.1,1-.4h.1c1.4-1.5,80.7-158.3,176.2-348.4,95.5-190.1,197.2-391.6,225.8-447.7Z"/>
  <path class="st0" d="M797.9,947.5c-9.6-1.1-26.5-10.6-108-56.4-220.8-123.9-340-189.8-343-189.5,5.2.9,124.3,66.8,342.9,189.5,81.8,45.9,98.5,55.3,108.1,56.4Z"/>
  <path d="M954.8,490.5l-9-4.3h0c-49.5-22.3-82.9-28.3-151.7-28.3h-57.5l-34.3,11.9c-43,14.8-76.6,32-105.8,54.3-27.8,21.1-32.4,28.6-33.9,43.7-1.5,14.5,5.9,27.8,18.4,33.3,6.1,2.6,10.5,3.8,14.5,3.8,8.6,0,17.9-5.4,36.9-21.2,25.3-21,66-40.8,103.7-50.4,15.8-4,26.6-5.9,45.4-5.9s14.3.2,25.9.7c68.3,2.9,124.4,22.7,166.7,58.9,14.7,12.5,23,17,31.8,17h0c3.1,0,6.5-.5,10.7-1.7,8.8-2.4,15.9-9.5,19.4-19.4,4.1-11.6,2.4-24.7-4.5-34.3-11.1-15.6-51.3-46-76.8-58Z"/>
  <path d="M864.8,647.7l-2.4-2.1h0c-15.7-12.7-37.2-19.6-60.9-19.6s-39.3,5.1-53.9,14c-10.5,6.4-23.5,17.9-25.2,35.9-1.4,14.3,2.5,22.4,15.2,30.9,6,4,11,5.8,16.4,5.8s12.9-2.2,22.4-7c10.2-5.1,16.9-8.3,24.3-8.3s14.5,3.3,25.1,8.7c8.3,4.2,15.9,6.3,22.5,6.3s14.9-3,21.2-9c6.6-6.4,10.1-15.3,9.9-25.1-.3-11.5-5.6-22.6-14.7-30.5Z"/>
  <path d="M1586.3,441.1c-1.8-4.5-3.5-5.4-8.1-7.6-1.9-.9-4-2-6.4-3.5l-6-3.7c-16.4-9.5-59.9-33.7-111.5-62.1-59.2-32.6-128-70.6-156.5-86.5C1105.7,170.4,834.4,19.4,821.8,12.8c-7.7-4.1-13.4-5.8-19.5-5.8s-2.6,0-4,.2c-13.2,2.9-158.9,83-389.6,211.3C187.3,341.6,27,431.1,21.7,434.5c-1.2.8-2.2,1.4-3.1,1.9-3.2,1.8-4.1,2.3-5.4,7-2,7.1-3.3,20.8-4.2,44.3-1.9,50.5-1.8,149.9-1.8,347.9v71.5s0,452.2,0,452.2l6.5,7.7c3.1,3.6,30,21.3,70.6,43.9,18.1,10.1,112.2,62.5,189.9,105.8,32.2,18,72.9,40.6,113.5,63.3,46.4,25.9,92.7,51.7,126.1,70.3,121.3,67.6,210.5,117.6,251.2,140.9,16.7,9.6,25.7,13.9,34.7,13.9h0c10.6,0,22.8-6,48-20.4,52.2-30,257.6-145.1,523.4-293.2,52.8-29.5,125.2-69.8,156.2-87.2,39.2-21.9,57.4-35,59.6-38.2l5.5-7.6.8-450.4c0-40.1.2-76.8.2-110.4.4-180,.6-270.3-1.8-316.5-1.1-21.2-2.7-33.6-5.3-40.2ZM154.2,443.1l19.9-11.1h0c17.5-9.7,38-21.3,52.6-29.6,20-11.3,93.4-52,161.5-89.6,71.3-39.4,165-91.3,208.7-115.7l23.4-13.1c151.6-84.5,171.1-95.4,183-95.4s6.5,1.3,8.6,2.4c.3.2.7.4,1,.5,6.6,3.1,65.4,35.6,118.4,65.3,59.9,33.5,177.3,98.8,262.5,145.9,113,62.6,183.1,101.6,227.3,126.4,22.4,12.6,38.2,21.6,48.5,27.7,15.7,9.2,17.8,10.4,18,15v.2s0,.2,0,.2c0,5.1,0,5.6-35.3,25.8-23.4,13.4-63.8,36-139.4,78.1-185.5,103.3-402.4,224.6-455.1,254.6-52.7,29.9-53.3,29.9-55.7,29.9s-2.9,0-62.8-33.3c-41.5-23.1-104.6-58.3-192.9-107.8-64.6-36.1-188.6-105.3-276.3-154.1-40.6-22.6-78.8-44.1-107.7-60.6-14.1-8-25.1-14.4-32.8-19-13.7-8.1-15.5-9.2-15.5-13.6s0-6.5,40.3-29ZM87.1,1289.2l-5.9-5.9v-737.9l23.5,12c20.3,10.3,99.5,55.7,104.8,60.9,1.4,1.4,3.6,3.5,40.7,76.1,21.2,41.6,49.3,97.2,78.9,156.6,29.6,59.3,57.1,114.9,77.4,156.6,35.6,73.1,35.6,75.1,35.6,77.5,0,1.9-.7,3.7-2.1,5.1l-.2.2c-3.7,3.5-133.9,76.3-139.5,79.4-99.4,55.6-155.6,87-172,96.3l-41.3,23.2ZM746.2,1686.5v5.5h-7q-2.4,0-38.2-20c-150.8-84.4-461.6-258.1-507.6-283.5-48.8-27-55-31.4-55.4-38.8,0-1.9.3-5.4,4.3-8.1,4.1-2.8,47.7-27.5,72.9-41.7,255-143.3,256.2-143.3,261.9-143.3s4.2.9,5.6,2.5h0c.6.8,1.6,2,92.5,182,44.4,87.9,102.4,202.5,119.6,236.1,14.9,29.3,33.8,67.2,40.1,80.9,9.8,21,11.8,25.7,11.1,28.4ZM807.3,1606.2l-2.1,2.2h-1.5c-.8.3-1.7.4-2.6.4-5.9,0-10.1-5.8-12.6-10.7-17.3-33.8-181.5-359.4-303.7-602.2-39.3-78-75.7-150.8-102.6-205-13.3-26.9-23.7-48-30.9-62.7-3.7-7.5-6.4-13.4-8.3-17.3-3.3-7.1-5-10.7-1.1-14.3l2-1.9h2.9c2.8,0,4.4,0,93.6,49.3,57.4,31.7,142.5,79.2,252.8,141.1l1.9,1.1c80.4,45.2,97.2,54.6,104.8,54.6s2.4-.2,4-.4h.7c4.1-.6,23-9.1,44.7-21.7,53.8-31.4,160.7-91.2,235.9-132.9,44.8-24.8,85.7-47.3,115.1-63.3,50.9-27.6,52.1-27.6,54.5-27.6h3s1.9,1.9,1.9,1.9c4.4,3.9,4.2,4.3-12.8,39.1-9.4,19.2-22.4,45-36.4,72.7-28.7,56.4-131.4,259.8-225.8,447.7-46.2,91.9-90,178.9-123.4,244.9-52.2,103.2-52.9,104-53.9,105.1ZM1463.2,1352.6c-1.3,4.3-2.8,5.7-35.6,24.4-27.4,15.6-77,43.3-179.4,100.3h.1l-23.5,13.1c-216.1,120.3-342.9,191.2-350.8,196.9-3.1,2.8-7.1,4.5-10.6,4.5-5.3,0-9.3-3.8-9.3-8.8s0-3.9,66.4-135.6c9.4-18.6,19.4-38.5,29.8-59.1,53.7-106.8,111.4-222.1,129.6-258.8,9-18.2,17.9-35.6,25-49,12.1-22.9,13.2-23.8,17.4-24.1h.3s.3,0,.3,0c2.3,0,2.9,0,38.9,19.5,23,12.5,52.1,28.5,81.9,45.1,30.1,16.7,130.9,72.9,166.1,92.1,14,7.7,26.8,15.1,36.3,20.9,13.3,8.2,19.5,12,17.3,18.5ZM1519.3,916.6l-.8,375.1-47.9-27c-20.8-11.7-99.3-55.5-175.2-97.6l-143.6-79.9,98.9-195.7c48.8-96.5,105.2-207.2,118.4-232l23.2-44.1,58.1-33.2c55.6-31.8,59.2-31.8,61.1-31.8s3.7.8,5.1,2.1h0c2.1,2.1,2.1,3.1,2.3,12.5,0,4.9.1,12.1.2,21.4.1,18.3.2,45.3.3,77.9.1,69.9,0,159.3-.2,252l.2.2Z"/>
  <path d="M418,498c.9.5,1.8,1.1,2.7,1.6h0c3.7,2.1,12.6,4.5,19.3,4.5,11.1,0,11.5,0,47.3-34.8,21.6-21,47.3-43.3,58.5-50.9,69.8-47,160.5-72.8,255.2-72.8s104.8,8.2,152.8,24.3c67,22.5,114.8,52.3,164.9,102.6q31.5,31.7,43.5,31.7c11,0,20.5-4.5,26.5-12.6,6.9-9.2,8.6-21.9,4.8-34.9-1.7-5.5-12.3-20.6-36.7-44.7-21.2-21-44.7-40.6-62.8-52.6-82-54.3-186.4-84.1-294-84.1s-209.7,29.3-290.8,82.5c-24.9,16.4-51.2,39.2-72.2,62.7-23.5,26.3-31.8,43.8-31.8,51.5,0,18.5,4.8,21.4,12.8,26.1Z"/>
</svg>