<?xml version="1.0" encoding="UTF-8"?>
<svg id="Layer_1" xmlns="http://www.w3.org/2000/svg" version="1.1" viewBox="0 0 1601 1812">
  <!-- Generator: Adobe Illustrator 29.4.0, SVG Export Plug-In . SVG Version: 2.1.0 Build 152)  -->
  <defs>
    <style>
      .st0 {
        fill: none;
      }
    </style>
  </defs>
  <path class="st0" d="M435.1,1085.1c2.7-2.6-222.6-454.2-230.5-461.9-4-3.9-79.9-47.8-103.1-59.7l-13.3-6.8v723.6l36.7-20.6c20.2-11.3,97.6-54.7,172-96.3,74.4-41.6,136.6-76.8,138.1-78.4Z"/>
  <path class="st0" d="M273.3,559.3c83.8,46.6,208.2,115.9,276.3,154.1,179.4,100.4,250.9,140.1,252.3,140.2.7,0,24.2-13,52.2-29,51-29,265.5-149,455.2-254.6,143.4-79.8,171.2-95.7,171.1-97.7,0-2.1-70.9-41.9-290.1-163.3-85.2-47.2-203.3-112.8-262.5-145.9-59.2-33.1-112.3-62.4-118-65.1-11.6-5.6-3-9.9-209.7,105.3-45.7,25.5-139.6,77.6-208.7,115.7s-141.7,78.5-161.4,89.6c-19.7,11.2-52.4,29.5-72.5,40.9-20.2,11.3-36.7,21.6-36.7,22.9s68.6,40.5,152.4,87.1ZM874.3,708.2c-13.8,13.2-30.9,14.5-51.8,3.9-20.7-10.5-23.1-10.5-43.1-.4-20,10.1-31.7,10.3-45.9.7-14.6-9.9-19.8-20.5-18.2-37.4,5.4-55.3,104.4-76.3,154-32.8,20.5,18,22.9,48.7,5,65.9ZM1018.6,608.8c-17.4,4.8-28,1.2-48.9-16.7-41.3-35.2-95.7-54.4-162.5-57.2-36.1-1.5-46.4-.8-69.3,5-36.6,9.3-76.6,28.6-100.9,49-28.8,24-38.8,27.2-58.7,18.5-15.4-6.7-24.4-22.8-22.6-40.4,1.9-18.3,8.8-27.5,36.6-48.6,29.8-22.6,64.4-40.3,107.8-55.3l35.4-12.2h58.7c73.7-.1,108.1,6.8,163.8,33,26.4,12.5,67.7,43.7,79.5,60.3,16.4,23,6.3,57.5-18.8,64.5ZM505.2,351.9c170.9-112.1,421.5-111.4,592.5,1.6,39.3,26,97,82.9,102.4,101.2,9,30-8.8,56.5-38,56.5s-15.6-.8-48.5-33.8c-49.4-49.6-96.2-78.7-162.2-100.9-133.1-44.7-292.8-25.7-401.9,47.7-10.8,7.2-36.6,29.8-57.5,50.1-36.7,35.8-38.4,36.9-52.2,36.8-7.8,0-18.3-2.6-23.2-5.6-9.9-6.1-18.8-22.1-18.8-33.7,0-24.6,53.9-85,107.2-120Z"/>
  <path class="st0" d="M1204.1,805.3c28.7-56.1,51.5-102.7,50.7-103.5-1.8-1.8-303.8,165.5-402,222.8-19.7,11.5-41,21.6-47.3,22.5-12.9,1.8-11.2,2.6-115.7-56-222.4-124.8-341.8-190.8-343.1-189.5-.8.8,64.1,131.8,144.3,291.1,122.8,243.9,286.4,568.2,303.7,602.2,2.6,5.2,5.9,8.1,7.3,6.5,1.4-1.5,80.7-158.3,176.2-348.4,95.5-190.1,197.2-391.6,225.8-447.7Z"/>
  <path class="st0" d="M688.8,1580.4c-16-31.2-69.8-137.5-119.6-236.1-49.8-98.6-91-179.9-91.6-180.5-1.7-1.9-32.9,15.3-258.9,142.3-36.7,20.6-69.4,39.3-72.4,41.4-4.8,3.3,2.5,8.3,50.5,35,45.4,25.1,351.4,196.1,507.6,283.5,18.8,10.5,34.5,19.1,34.8,19.1s-4.3-10.8-10.4-23.9c-6.1-13.1-24.1-49.4-40-80.7Z"/>
  <path class="st0" d="M1406.2,1319.5c-28.2-15.4-102.9-56.9-166.1-92.1-63.2-35.2-116-63.9-117.4-63.8-1.4.1-17.9,31.3-36.7,69.3-18.8,38-77.1,154.4-129.6,258.8-52.5,104.3-95.4,190.5-95.4,191.5,0,2.8,4.8,2.2,8.3-1,3.3-3.1,92.9-53.4,352-197.7,228.3-127.2,234.3-130.5,235.3-133.9.5-1.6-22.1-15.6-50.3-31.1Z"/>
  <path class="st0" d="M1454.1,588.6l-56.3,32.2-22.3,42.3c-12.3,23.2-65.5,127.6-118.3,231.9l-95.9,189.7,137.7,76.6c75.7,42.1,154.5,86,175.2,97.6l37.5,21.1.8-360.3c.5-198.2.2-361-.5-361.7-.7-.7-26.7,13.1-57.7,30.8Z"/>
  <path d="M957.9,484.1c-55.7-26.2-90.1-33.1-163.8-33.1h-58.7c0,0-35.4,12.3-35.4,12.3-43.4,14.9-78,32.6-107.8,55.3-27.8,21.1-34.8,30.3-36.6,48.6-1.8,17.6,7.2,33.7,22.6,40.4,19.9,8.6,29.9,5.5,58.7-18.5,24.4-20.3,64.3-39.7,100.9-49,22.9-5.8,33.2-6.5,69.3-5,66.8,2.8,121.2,21.9,162.5,57.2,21,17.9,31.5,21.5,48.9,16.7,25.1-6.9,35.2-41.5,18.8-64.5-11.8-16.6-53-47.8-79.5-60.3Z"/>
  <path d="M869.4,642.3c-49.6-43.5-148.6-22.5-154,32.8-1.7,16.8,3.5,27.5,18.2,37.4,14.2,9.6,26,9.4,45.9-.7,20-10.1,22.4-10.1,43.1.4,20.9,10.6,38,9.3,51.8-3.9,17.9-17.2,15.6-47.9-5-65.9Z"/>
  <path d="M1575.5,423.9c-8.3-5.2-61.4-34.8-117.9-65.9-56.5-31.1-126.9-70-156.5-86.5C1102.3,160.5,837.4,13.1,825.1,6.6c-10.6-5.6-18.3-7.3-27.7-6.3-9.7,1-110.9,55.8-392.1,212.1C196.8,328.3,22.5,425.6,17.9,428.6-.8,440.8.2,412.8.2,907v454.8l8.2,9.7c4.6,5.4,36.5,25.4,72.5,45.5,35.4,19.7,120.9,67.3,189.9,105.8,69,38.5,176.9,98.6,239.6,133.6,128.2,71.4,212.4,118.7,251.1,140.9,36.5,21,42.5,20.5,89.7-6.5,52.6-30.2,258.4-145.5,523.3-293.2,55.6-31,125.9-70.2,156.2-87.2,33.5-18.7,57.8-34.5,61.9-40.2l6.8-9.4.8-452.7c.9-509.9,3.2-466.8-24.8-484.1ZM157.5,449.4c20.2-11.3,52.8-29.7,72.5-40.9,19.7-11.1,92.4-51.5,161.4-89.6s163-90.2,208.7-115.7c206.7-115.2,198.1-110.9,209.7-105.3,5.7,2.7,58.8,32,118,65.1,59.2,33.1,177.3,98.8,262.5,145.9,219.2,121.4,290,161.3,290.1,163.3,0,2-27.7,17.9-171.1,97.7-189.7,105.6-404.2,225.6-455.2,254.6-28,15.9-51.5,29-52.2,29-1.4,0-73-39.7-252.3-140.2-68.1-38.1-192.5-107.5-276.3-154.1-83.8-46.6-152.4-85.8-152.4-87.1s16.5-11.6,36.7-22.9ZM88.2,1280.4v-723.6l13.3,6.8c23.2,11.8,99,55.7,103.1,59.7,7.9,7.7,233.2,459.2,230.5,461.9-1.6,1.5-63.7,36.8-138.1,78.4-74.4,41.6-151.8,84.9-172,96.3l-36.7,20.6ZM739.2,1685c-.4,0-16-8.6-34.8-19.1-156.2-87.4-462.2-258.4-507.6-283.5-48-26.6-55.3-31.7-50.5-35,3.1-2.1,35.7-20.7,72.4-41.4,226-127,257.3-144.1,258.9-142.3.6.7,41.8,81.9,91.6,180.5,49.8,98.6,103.6,204.9,119.6,236.1,15.9,31.3,34,67.6,40,80.7,6.1,13.1,10.8,23.9,10.4,23.9ZM802.1,1601.4c-1.4,1.6-4.7-1.4-7.3-6.5-17.4-33.9-180.9-358.2-303.7-602.2-80.2-159.3-145.2-290.3-144.3-291.1,1.3-1.3,120.7,64.7,343.1,189.5,104.5,58.7,102.8,57.8,115.7,56,6.3-.8,27.6-11,47.3-22.5,98.2-57.3,400.2-224.6,402-222.8.8.7-22.1,47.3-50.7,103.5-28.6,56.1-130.3,257.6-225.8,447.7-95.5,190.1-174.8,346.9-176.2,348.4ZM1221.3,1484.4c-259.1,144.3-348.7,194.6-352,197.7-3.5,3.3-8.3,3.8-8.3,1s42.9-87.2,95.4-191.5c52.5-104.3,110.8-220.8,129.6-258.8,18.8-38,35.4-69.2,36.7-69.3,1.4,0,54.2,28.6,117.4,63.8,63.2,35.2,137.9,76.7,166.1,92.1,28.2,15.5,50.9,29.4,50.3,31.1-1,3.3-6.9,6.7-235.3,133.9ZM1512.3,919.5l-.8,360.3-37.5-21.1c-20.6-11.6-99.4-55.5-175.2-97.6l-137.7-76.6,95.9-189.7c52.8-104.3,106-208.7,118.3-231.9l22.3-42.3,56.3-32.2c31-17.7,57-31.6,57.7-30.8.7.7,1,163.5.5,361.7Z"/>
  <path d="M416.8,505.5c4.9,3,15.4,5.6,23.2,5.6,13.8,0,15.5-1.1,52.2-36.8,20.9-20.3,46.7-42.8,57.5-50.1,109.1-73.4,268.9-92.4,401.9-47.7,66,22.2,112.8,51.3,162.2,100.9,32.9,33.1,34,33.8,48.5,33.8,29.1,0,46.9-26.5,38-56.5-5.5-18.3-63.1-75.2-102.4-101.2-171-113.1-421.5-113.8-592.5-1.6-53.3,35-107.2,95.3-107.2,120s8.9,27.6,18.8,33.7Z"/>
</svg>