<svg width="70" height="36" viewBox="0 0 70 36" fill="none" xmlns="http://www.w3.org/2000/svg">
<g clip-path="url(#clip0_0_16)">
<path d="M67.2447 17.0816L67.2076 17.1188C67.4678 16.4126 67.9881 16.1524 68.4341 16.1524C69.066 16.1524 69.6235 16.6356 69.6235 17.3418C69.6235 17.4905 69.6235 17.6763 69.5492 17.8993C68.2483 21.2445 65.4978 22.9542 62.8217 23.2144C61.5952 25.2958 59.5881 26.8197 56.7261 26.8197C52.6376 26.8197 50.8164 23.5861 50.8164 20.0551C50.8164 15.7064 53.5669 10.8745 58.1757 10.8745C59.1792 10.8745 60.0341 11.0976 60.7403 11.3949C62.8217 12.1754 64.1598 14.8887 64.1598 17.7878C64.1598 18.717 64.0854 19.6462 63.8624 20.5383C65.2377 20.0551 66.5385 18.94 67.2447 17.0816ZM59.4766 13.9223V13.8852C58.6589 13.8852 58.1757 14.963 58.1757 16.2639C58.1757 18.1595 59.2164 19.9064 60.8518 20.5383C61.112 19.7206 61.2235 18.7914 61.2235 17.7135C61.2235 15.6321 60.5916 13.9223 59.4766 13.9223ZM56.7633 24.1064C57.804 24.1064 58.8447 23.6604 59.6624 22.7312C57.2465 21.6533 55.7226 19.1259 55.7226 16.7099C55.7226 15.8922 55.8713 15.0374 56.0943 14.294C54.6076 15.5206 53.7527 17.9365 53.7527 20.0551C53.7527 22.8055 55.0536 24.1064 56.7633 24.1064Z" fill="black"/>
<path d="M51.3903 17.0813L51.3531 17.1185C51.6133 16.4123 52.0593 16.115 52.5053 16.115C53.1372 16.115 53.769 16.6725 53.769 17.3787C53.769 17.5645 53.7319 17.7132 53.6575 17.899C52.208 21.43 50.0522 25.5557 46.5956 27.9716L46.5213 28.715C46.1124 33.1752 43.8452 35.9999 40.9832 35.9999C38.8274 35.9999 37.5637 34.5132 37.5637 32.7663C37.5637 29.607 40.7973 28.4548 43.808 26.5221C43.8823 25.7415 43.9195 24.8495 43.9566 23.8459C42.4699 25.4813 40.8717 26.1504 39.4593 26.1504C36.6345 26.1504 34.3301 23.8459 34.3301 20.315C34.3301 14.8884 37.8982 11.3203 41.8752 11.3203H41.9124C44.6257 11.3203 47.5248 12.7698 47.5248 15.3716C47.5248 16.2265 47.1531 20.8725 46.8558 24.4778C48.8628 22.5822 50.5354 19.4973 51.3903 17.0813ZM39.8681 23.4743C41.2434 23.4743 43.1018 22.6194 44.254 18.4194C44.4398 17.4902 44.5513 16.6725 44.5142 15.7061C44.2912 14.7026 43.4363 14.1079 42.2097 14.1079C39.6823 14.1079 37.2664 16.5238 37.2664 20.2035C37.2664 22.4336 38.3071 23.4743 39.8681 23.4743ZM41.2805 33.2867H41.3177C42.0982 33.2867 42.9531 32.7663 43.5106 29.4212C41.8752 30.3875 40.3513 31.3539 40.3513 32.5061C40.3513 32.9893 40.723 33.2867 41.2805 33.2867Z" fill="black"/>
<path d="M34.982 17.0816L34.9449 17.1188C35.205 16.4126 35.7254 16.1524 36.1714 16.1524C36.8033 16.1524 37.3608 16.6356 37.3608 17.3418C37.3608 17.4905 37.3608 17.6763 37.2865 17.8993C35.9856 21.2445 33.2351 22.9542 30.559 23.2144C29.3325 25.2958 27.3254 26.8197 24.4634 26.8197C20.3749 26.8197 18.5537 23.5861 18.5537 20.0551C18.5537 15.7064 21.3041 10.8745 25.913 10.8745C26.9165 10.8745 27.7714 11.0976 28.4776 11.3949C30.559 12.1754 31.8971 14.8887 31.8971 17.7878C31.8971 18.717 31.8227 19.6462 31.5997 20.5383C32.975 20.0551 34.2758 18.94 34.982 17.0816ZM27.2139 13.9223V13.8852C26.3962 13.8852 25.913 14.963 25.913 16.2639C25.913 18.1595 26.9537 19.9064 28.5891 20.5383C28.8493 19.7206 28.9608 18.7914 28.9608 17.7135C28.9608 15.6321 28.3289 13.9223 27.2139 13.9223ZM24.5006 24.1064C25.5413 24.1064 26.582 23.6604 27.3997 22.7312C24.9838 21.6533 23.4599 19.1259 23.4599 16.7099C23.4599 15.8922 23.6086 15.0374 23.8316 14.294C22.3449 15.5206 21.49 17.9365 21.49 20.0551C21.49 22.8055 22.7909 24.1064 24.5006 24.1064Z" fill="black"/>
<path d="M20.4429 15.9085C19.9225 15.9085 19.4765 16.1687 19.1791 16.8749C18.2128 19.328 16.2056 23.4909 14.1613 23.4909C12.8741 23.4909 11.878 23.1998 10.8714 22.9056C9.84348 22.6052 8.80467 22.3015 7.43378 22.3015C6.95058 22.3015 6.28154 22.3759 5.64967 22.4874C7.55325 19.8916 8.26439 16.7479 8.95347 10.8056C7.65601 10.723 6.6006 10.4833 5.83132 10.2412C5.00967 17.7777 4.07661 20.6513 0.669037 23.4909C0.22301 23.8626 0 24.383 0 24.9034C0 25.7211 0.706212 26.4273 1.59827 26.4273C1.89562 26.4273 2.23013 26.3158 2.56465 26.1671C4.46027 25.3122 5.6125 25.0892 7.02492 25.0892C7.92309 25.0892 8.99783 25.3461 10.1485 25.621C11.4739 25.9378 12.9 26.2786 14.2729 26.2786C17.2835 26.2786 19.2535 23.3423 21.4464 17.6554C21.558 17.4696 21.5951 17.2466 21.5951 17.0607C21.5951 16.3545 21.0376 15.9085 20.4429 15.9085Z" fill="black"/>
<path fill-rule="evenodd" clip-rule="evenodd" d="M6.01967 8.70287C6.69276 8.93784 7.74358 9.2114 9.10601 9.29233L9.32901 9.29222C13.5291 9.29222 16.2796 6.6904 16.2796 3.56821C16.2796 1.56109 14.7185 0 12.5255 0C9.5892 0 7.54492 2.00712 6.50419 5.98419C5.20328 5.27798 4.31123 4.01424 3.8652 2.41598C3.64218 1.63543 3.15899 1.15223 2.48994 1.15223C1.67223 1.15223 1.15186 1.78411 1.15186 2.63899C1.15186 5.16648 3.12182 7.58245 6.02099 8.69752L6.01967 8.70287ZM9.55202 6.57889C10.1095 4.01424 11.0016 2.78767 12.191 2.78767C12.8229 2.78767 13.2317 3.15936 13.2317 3.8284C13.2317 5.05497 11.9308 6.50455 9.55202 6.57889Z" fill="black"/>
</g>
<defs>
<clipPath id="clip0_0_16">
<rect width="70" height="36" fill="white"/>
</clipPath>
</defs>
</svg>
