<svg width="116" height="20" viewBox="0 0 116 20" fill="none" xmlns="http://www.w3.org/2000/svg">
<path fill-rule="evenodd" clip-rule="evenodd" d="M30.9983 0L21.1072 19.3362H11.8166L15.956 11.3224H15.7703C12.3553 15.7556 7.25999 18.6739 0 19.3362V11.4334C0 11.4334 4.64439 11.159 7.37469 8.28851H0V0.000152518H8.28836V6.81721L8.47439 6.81645L11.8614 0.000152518H18.1296V6.77398L18.3156 6.77368L21.8296 0H30.9983Z" fill="black"/>
<path d="M84.9357 17.2019H87.6051V1.87991H84.9357V17.2019Z" fill="black"/>
<path fill-rule="evenodd" clip-rule="evenodd" d="M70.2198 17.0455C70.7998 17.2866 71.3898 17.4073 71.9896 17.4073C72.9803 17.4073 73.8669 17.1661 74.6491 16.6836C75.4313 16.2013 76.0376 15.5365 76.4678 14.689C76.898 13.8351 77.1131 12.867 77.1131 11.7849C77.1131 10.7029 76.8915 9.73488 76.4483 8.88094C76.0049 8.02701 75.389 7.36537 74.6002 6.89602C73.8115 6.42017 72.9151 6.1855 71.9112 6.19201C71.2725 6.19201 70.6598 6.31587 70.073 6.56358C69.4864 6.81129 68.9975 7.16329 68.6064 7.61959C68.5762 7.65433 68.5469 7.68942 68.5184 7.72486V1.88974H65.8393V17.202H68.4988L68.4935 15.7715C68.5622 15.8558 68.6358 15.9382 68.7139 16.0188C69.1376 16.4556 69.6396 16.7977 70.2198 17.0455ZM72.9575 14.5717C72.5208 14.839 72.0221 14.9726 71.4615 14.9726C70.9074 14.9726 70.3989 14.8356 69.9362 14.5619C69.4733 14.2816 69.105 13.9003 68.8312 13.4179C68.5639 12.9355 68.4303 12.3879 68.4303 11.7752C68.4239 11.1624 68.5542 10.6149 68.8214 10.1325C69.0953 9.64362 69.4635 9.26553 69.9264 8.99827C70.3892 8.7245 70.9009 8.59086 71.4615 8.59738C72.0221 8.59086 72.5208 8.72123 72.9575 8.9885C73.4008 9.24924 73.7397 9.62406 73.9744 10.113C74.2156 10.5953 74.3362 11.1494 74.3362 11.7752C74.3362 12.401 74.2156 12.9551 73.9744 13.4374C73.7397 13.9199 73.4008 14.2979 72.9575 14.5717Z" fill="black"/>
<path d="M34.8654 2.80885H37.9161L40.6451 12.7751L43.5482 2.80885H46.0905L49.2389 12.5751L51.8594 2.80885H54.6558L50.5296 17.2019H47.8994L44.6977 7.66103L41.7588 17.2019H39.0992L34.8654 2.80885Z" fill="black"/>
<path fill-rule="evenodd" clip-rule="evenodd" d="M59.1613 17.4561C58.0986 17.4626 57.1404 17.2279 56.2865 16.7521C55.439 16.2697 54.771 15.6015 54.282 14.7476C53.7996 13.8937 53.5585 12.9192 53.5585 11.824C53.5585 10.7615 53.8062 9.80002 54.3016 8.93957C54.797 8.07911 55.4684 7.40769 56.3158 6.92532C57.1633 6.44294 58.1084 6.20175 59.1514 6.20175C60.3248 6.20175 61.3514 6.46249 62.2314 6.98398C63.118 7.50546 63.7796 8.24533 64.2164 9.20356C64.6596 10.1553 64.8193 11.2471 64.6955 12.4792H56.32C56.3434 12.97 56.4659 13.4165 56.6874 13.8187C56.9351 14.262 57.2806 14.6074 57.7238 14.8552C58.1671 15.1029 58.6625 15.2267 59.2101 15.2267C59.6273 15.2202 60.0152 15.1485 60.3736 15.0117C60.7322 14.8683 61.0352 14.676 61.283 14.4347C61.5372 14.1935 61.7165 13.9198 61.8208 13.6134H64.6173C64.4478 14.363 64.1088 15.0312 63.6004 15.6179C63.0919 16.1981 62.4531 16.6511 61.6839 16.977C60.9147 17.3029 60.0738 17.4626 59.1613 17.4561ZM56.6972 9.79024C56.541 10.0626 56.4327 10.3559 56.3724 10.6703H61.9244C61.8841 10.2732 61.7615 9.91145 61.5568 9.5849C61.3221 9.2003 61.0027 8.90371 60.5986 8.69511C60.1944 8.48 59.7381 8.37245 59.2297 8.37245C58.6886 8.37245 58.1965 8.49629 57.7531 8.744C57.3099 8.99171 56.9579 9.34046 56.6972 9.79024Z" fill="black"/>
<path d="M79.0788 6.42667C79.0788 5.55318 79.2775 4.77746 79.6752 4.09952C80.0728 3.41508 80.6302 2.8838 81.3473 2.50573C82.0708 2.12113 82.915 1.92231 83.8797 1.90928V4.2853C83.4299 4.29182 83.0453 4.38634 82.7259 4.56887C82.413 4.74487 82.1718 5.00235 82.0023 5.34132C81.8463 5.65338 81.7621 6.01516 81.7498 6.42667H83.821V8.68536H81.7482V17.2019H79.0788V8.68536H77.3579V6.42667H79.0788Z" fill="black"/>
<path fill-rule="evenodd" clip-rule="evenodd" d="M94.3905 17.4365C93.3019 17.4365 92.3274 17.1985 91.4669 16.7228C90.613 16.2403 89.9416 15.5755 89.4527 14.728C88.9703 13.8741 88.7291 12.9061 88.7291 11.8239C88.7291 10.7354 88.9703 9.76412 89.4527 8.91018C89.9416 8.04972 90.613 7.38157 91.4669 6.90571C92.3274 6.42985 93.3019 6.19192 94.3905 6.19192C95.4856 6.19192 96.4635 6.42985 97.3238 6.90571C98.1908 7.38157 98.8656 8.04646 99.3479 8.9004C99.8302 9.75433 100.075 10.7289 100.081 11.8239C100.075 12.9061 99.8302 13.8741 99.3479 14.728C98.872 15.5755 98.2006 16.2403 97.3336 16.7228C96.4667 17.1985 95.4856 17.4365 94.3905 17.4365ZM94.3905 14.9823C94.9642 14.9823 95.4726 14.8519 95.9158 14.5912C96.3592 14.3239 96.7013 13.9523 96.9426 13.4764C97.1838 12.9941 97.3043 12.4432 97.3043 11.8239C97.3043 11.1982 97.1838 10.6441 96.9426 10.1617C96.7013 9.67937 96.3592 9.30782 95.9158 9.04707C95.4726 8.77981 94.9642 8.64618 94.3905 8.64618C93.8235 8.64618 93.3182 8.77981 92.8749 9.04707C92.4382 9.30782 92.0992 9.67937 91.858 10.1617C91.6169 10.6441 91.4996 11.1982 91.506 11.8239C91.506 12.4432 91.6266 12.9941 91.8678 13.4764C92.1155 13.9523 92.4545 14.3239 92.8847 14.5912C93.3215 14.8519 93.8235 14.9823 94.3905 14.9823Z" fill="black"/>
<path d="M102.966 6.42665H99.9934L103.21 17.2019H105.811L107.927 10.3197L110.211 17.2019H112.773L116 6.42665H113.311L111.481 13.1336L109.458 6.42665H106.857L104.844 13.2813L102.966 6.42665Z" fill="black"/>
</svg>
